<svg xmlns="http://www.w3.org/2000/svg" data-name="Gradient Line" viewBox="0 0 24 24"><defs><linearGradient id="a" x1="-11.61" x2="31.18" y1="-8.43" y2="34.35" gradientUnits="userSpaceOnUse"><stop offset="0" stop-color="#9cecfb"/><stop offset=".51" stop-color="#65c7f7"/><stop offset="1" stop-color="#0052d4"/></linearGradient></defs><path fill="url(#a)" d="M20,23H4a3,3,0,0,1-3-3,7,7,0,0,1,6.16-6.95,7,7,0,1,1,9.68,0A7,7,0,0,1,23,20,3,3,0,0,1,20,23ZM8,15a5,5,0,0,0-5,5,1,1,0,0,0,1,1H20a1,1,0,0,0,1-1,5,5,0,0,0-5-5Zm4-2A5,5,0,1,0,7,8,5,5,0,0,0,12,13Z"/></svg>